<?xml version="1.0" standalone="no"?>
<!DOCTYPE svg PUBLIC "-//W3C//DTD SVG 20010904//EN"
 "http://www.w3.org/TR/2001/REC-SVG-20010904/DTD/svg10.dtd">
<svg version="1.0" xmlns="http://www.w3.org/2000/svg"
 width="700.000000pt" height="700.000000pt" viewBox="0 0 700.000000 700.000000"
 preserveAspectRatio="xMidYMid meet">
<metadata>
Created by potrace 1.11, written by Peter Selinger 2001-2013
</metadata>
<g transform="translate(0.000000,700.000000) scale(0.100000,-0.100000)"
fill="#000000" stroke="none">
<path d="M970 6979 c-204 -53 -364 -223 -406 -431 -4 -18 -8 -1207 -8 -2643
-2 -1986 1 -2626 10 -2675 40 -216 217 -394 437 -440 38 -8 183 -12 415 -13
l357 -2 1 -136 c1 -186 11 -244 56 -339 66 -139 233 -263 388 -290 46 -8 608
-10 1930 -8 l1865 3 65 24 c167 62 291 191 342 356 l22 70 0 2545 c0 2414 -1
2548 -18 2605 -45 151 -158 286 -286 342 -100 44 -119 46 -410 52 l-285 6 -1
255 c-1 196 -5 270 -17 321 -48 198 -216 360 -420 404 -51 11 -416 13 -2012
14 -1901 0 -1952 -1 -2025 -20z m4007 -215 c72 -22 130 -60 173 -115 78 -99
72 144 72 -2752 0 -1426 -3 -2608 -7 -2627 -17 -100 -91 -190 -194 -239 l-56
-26 -1940 -3 c-2166 -3 -2012 -8 -2111 66 -57 44 -109 116 -125 175 -12 46
-16 5201 -4 5267 16 87 88 185 166 226 81 42 44 41 2052 41 1612 1 1936 -2
1974 -13z m1043 -1008 c91 -33 174 -130 195 -225 10 -45 10 -5017 0 -5062 -24
-109 -109 -199 -220 -231 -43 -13 -298 -15 -1900 -14 l-1850 1 -67 33 c-76 37
-126 89 -156 161 -17 41 -19 69 -18 202 l1 154 1465 1 c1124 1 1479 4 1525 14
218 45 394 219 437 431 11 54 13 485 13 2311 l0 2246 265 -2 c218 -2 273 -6
310 -20z"/>
<path d="M1743 5548 c-42 -11 -65 -40 -70 -91 -6 -48 13 -88 51 -110 26 -15
2495 -20 2539 -4 71 24 91 121 36 176 -17 17 -38 32 -47 32 -68 6 -2485 3
-2509 -3z"/>
<path d="M1743 4658 c-74 -19 -99 -118 -44 -177 16 -17 40 -32 53 -32 124 -7
2490 -3 2511 4 62 20 89 117 46 170 -11 15 -37 31 -57 36 -47 11 -2465 11
-2509 -1z"/>
<path d="M1722 3760 c-39 -24 -52 -48 -52 -99 0 -31 7 -46 31 -70 17 -17 36
-32 42 -32 60 -6 2489 -3 2512 3 64 17 98 111 59 166 -38 55 30 52 -1317 51
-1202 0 -1244 -1 -1275 -19z"/>
<path d="M1731 2877 c-56 -28 -76 -86 -51 -146 27 -66 -10 -63 757 -63 498 0
702 3 722 11 69 29 81 132 20 184 l-33 27 -696 0 c-532 0 -701 -3 -719 -13z"/>
</g>
</svg>
